<svg xmlns="http://www.w3.org/2000/svg" width="144" height="45" viewBox="0 0 144 45" fill="none"><mask id="mask0_1260_3113" style="mask-type:alpha" maskUnits="userSpaceOnUse" x="0" y="0" width="144" height="45"><rect width="144" height="45" fill="#D9D9D9"></rect></mask><g mask="url(#mask0_1260_3113)"><path d="M129.119 40.1894V36.9434H132.406V40.1894H129.119Z" fill="#606060"></path><path d="M121.841 40.4069C120.914 40.4069 120.058 40.2707 119.274 39.9982C118.507 39.7257 117.867 39.389 117.355 38.9883L118.555 37.0888C119.034 37.4254 119.554 37.7059 120.114 37.9303C120.674 38.1387 121.25 38.2429 121.841 38.2429C122.417 38.2429 122.873 38.1227 123.209 37.8822C123.561 37.6418 123.737 37.3292 123.737 36.9445C123.737 36.5598 123.593 36.2792 123.305 36.1029C123.033 35.9106 122.673 35.7503 122.225 35.622C121.777 35.4938 121.298 35.3655 120.786 35.2373C120.29 35.1091 119.818 34.9247 119.37 34.6843C118.922 34.4438 118.555 34.1072 118.267 33.6744C117.979 33.2416 117.835 32.6565 117.835 31.9191C117.835 30.8291 118.243 29.9474 119.058 29.2742C119.874 28.5849 120.97 28.2402 122.345 28.2402C123.113 28.2402 123.841 28.3444 124.529 28.5528C125.216 28.7612 125.832 29.0497 126.376 29.4184L125.152 31.2699C124.737 30.9814 124.289 30.7569 123.809 30.5966C123.329 30.4363 122.833 30.3562 122.321 30.3562C121.761 30.3562 121.314 30.4844 120.978 30.7409C120.642 30.9814 120.474 31.2939 120.474 31.6787C120.474 32.0313 120.618 32.3118 120.906 32.5202C121.21 32.7126 121.586 32.8729 122.033 33.0011C122.497 33.1133 122.985 33.2416 123.497 33.3858C124.009 33.5301 124.489 33.7305 124.936 33.987C125.4 34.2274 125.776 34.564 126.064 34.9968C126.368 35.4297 126.52 36.0147 126.52 36.7521C126.52 37.4735 126.312 38.1067 125.896 38.6517C125.496 39.1967 124.944 39.6295 124.241 39.9501C123.553 40.2547 122.753 40.4069 121.841 40.4069Z" fill="#606060"></path><path d="M110.794 40.4069C109.867 40.4069 109.011 40.2707 108.227 39.9982C107.459 39.7257 106.82 39.389 106.308 38.9883L107.507 37.0888C107.987 37.4254 108.507 37.7059 109.067 37.9303C109.627 38.1387 110.203 38.2429 110.794 38.2429C111.37 38.2429 111.826 38.1227 112.162 37.8822C112.514 37.6418 112.69 37.3292 112.69 36.9445C112.69 36.5598 112.546 36.2792 112.258 36.1029C111.986 35.9106 111.626 35.7503 111.178 35.622C110.73 35.4938 110.25 35.3655 109.739 35.2373C109.243 35.1091 108.771 34.9247 108.323 34.6843C107.875 34.4438 107.507 34.1072 107.219 33.6744C106.932 33.2416 106.788 32.6565 106.788 31.9191C106.788 30.8291 107.195 29.9474 108.011 29.2742C108.827 28.5849 109.923 28.2402 111.298 28.2402C112.066 28.2402 112.794 28.3444 113.481 28.5528C114.169 28.7612 114.785 29.0497 115.329 29.4184L114.105 31.2699C113.689 30.9814 113.242 30.7569 112.762 30.5966C112.282 30.4363 111.786 30.3562 111.274 30.3562C110.714 30.3562 110.266 30.4844 109.931 30.7409C109.595 30.9814 109.427 31.2939 109.427 31.6787C109.427 32.0313 109.571 32.3118 109.859 32.5202C110.163 32.7126 110.538 32.8729 110.986 33.0011C111.45 33.1133 111.938 33.2416 112.45 33.3858C112.962 33.5301 113.441 33.7305 113.889 33.987C114.353 34.2274 114.729 34.564 115.017 34.9968C115.321 35.4297 115.473 36.0147 115.473 36.7521C115.473 37.4735 115.265 38.1067 114.849 38.6517C114.449 39.1967 113.897 39.6295 113.194 39.9501C112.506 40.2547 111.706 40.4069 110.794 40.4069Z" fill="#606060"></path><path d="M99.5292 40.431C98.3615 40.431 97.3299 40.1825 96.4342 39.6856C95.5545 39.1726 94.8667 38.4673 94.3708 37.5697C93.875 36.6559 93.6271 35.598 93.6271 34.3957V34.1553C93.6271 33.0332 93.859 32.0313 94.3229 31.1497C94.7867 30.252 95.4345 29.5467 96.2662 29.0337C97.1139 28.5047 98.0896 28.2402 99.1933 28.2402C100.377 28.2402 101.377 28.5288 102.192 29.1058C103.024 29.6669 103.632 30.4684 104.016 31.5103C104.4 32.5523 104.504 33.7786 104.328 35.1892H95.6184V33.2175H102.864L101.64 34.2274C101.752 33.4259 101.712 32.7527 101.521 32.2076C101.345 31.6466 101.057 31.2218 100.657 30.9333C100.257 30.6287 99.7771 30.4764 99.2173 30.4764C98.5935 30.4764 98.0656 30.6367 97.6338 30.9573C97.2179 31.2779 96.898 31.7107 96.6741 32.2557C96.4662 32.8007 96.3622 33.4339 96.3622 34.1553V34.6362C96.3622 35.2934 96.4902 35.8785 96.7461 36.3914C97.002 36.9044 97.3779 37.3052 97.8737 37.5937C98.3695 37.8822 98.9693 38.0265 99.6731 38.0265C100.265 38.0265 100.761 37.9464 101.161 37.7861C101.577 37.6097 101.952 37.3693 102.288 37.0647L103.848 38.6998C103.384 39.2768 102.776 39.7096 102.024 39.9982C101.289 40.2867 100.457 40.431 99.5292 40.431Z" fill="#606060"></path><path d="M85.5969 40.1918V28.4819H88.26V31.8723L87.9241 31.8482C87.9721 30.9666 88.156 30.2773 88.4759 29.7803C88.7958 29.2674 89.2117 28.9067 89.7235 28.6983C90.2354 28.4899 90.7952 28.3857 91.403 28.3857H92.3627V31.1269H91.1871C90.2754 31.1269 89.5716 31.3352 89.0757 31.752C88.5959 32.1688 88.356 32.7779 88.356 33.5794V40.1918H85.5969Z" fill="#606060"></path><path d="M70.8015 44.9995V28.4807H73.3927V31.318L72.8409 30.6928C73.2887 29.9394 73.8805 29.3463 74.6163 28.9135C75.368 28.4647 76.1998 28.2402 77.1115 28.2402C78.1671 28.2402 79.1108 28.4887 79.9426 28.9856C80.7743 29.4826 81.4301 30.1799 81.9099 31.0775C82.3898 31.9752 82.6297 33.0172 82.6297 34.2034V34.4438C82.6297 35.6461 82.3898 36.696 81.9099 37.5937C81.4301 38.4914 80.7743 39.1887 79.9426 39.6856C79.1268 40.1825 78.1911 40.431 77.1355 40.431C76.2558 40.431 75.456 40.2306 74.7362 39.8299C74.0165 39.4131 73.4327 38.852 72.9848 38.1467L73.5606 37.4975V44.9995H70.8015ZM76.6796 38.0025C77.2714 38.0025 77.8073 37.8582 78.2871 37.5697C78.7829 37.2811 79.1668 36.8723 79.4387 36.3434C79.7266 35.7983 79.8706 35.1652 79.8706 34.4438V34.2034C79.8706 33.466 79.7266 32.8408 79.4387 32.3279C79.1668 31.7989 78.7829 31.3981 78.2871 31.1256C77.8073 30.8371 77.2714 30.6928 76.6796 30.6928C76.0558 30.6928 75.488 30.8371 74.9762 31.1256C74.4803 31.4142 74.0885 31.8309 73.8005 32.376C73.5286 32.921 73.3927 33.5782 73.3927 34.3476C73.3927 35.101 73.5286 35.7503 73.8005 36.2953C74.0885 36.8403 74.4803 37.2651 74.9762 37.5697C75.488 37.8582 76.0558 38.0025 76.6796 38.0025Z" fill="#606060"></path><path d="M56.8635 40.1903L60.8462 34.3474L56.9835 28.4805H60.2224L62.7176 32.5681L65.1888 28.4805H68.3798L64.517 34.3234L68.4518 40.1903H65.1648L62.6216 36.1508L60.0785 40.1903H56.8635Z" fill="#606060"></path><path d="M46.7609 40.1908C45.9451 40.1908 45.2734 39.9263 44.7455 39.3973C44.2337 38.8683 43.9778 38.1951 43.9778 37.3775V26.1726C43.9778 25.3551 44.2337 24.6818 44.7455 24.1529C45.2734 23.6239 45.9451 23.3594 46.7609 23.3594H54.9422V26.0524H47.7446C47.5046 26.0524 47.2967 26.1406 47.1208 26.3169C46.9608 26.4772 46.8808 26.6776 46.8808 26.918V36.6322C46.8808 36.8726 46.9608 37.081 47.1208 37.2573C47.2967 37.4176 47.5046 37.4978 47.7446 37.4978H54.9422V40.1908H46.7609ZM45.3933 33.0254V30.4526H54.4384V33.0254H45.3933Z" fill="#606060"></path><path d="M134.74 15.6532L134.548 12.1667L140.402 5.84291H143.809L134.74 15.6532ZM133.229 17.5528V0H135.988V17.5528H133.229ZM140.594 17.5528L136.708 11.1809L138.843 9.32942L144.001 17.5528H140.594Z" fill="white"></path><path d="M126.314 17.7933C125.146 17.7933 124.098 17.5448 123.171 17.0479C122.259 16.5349 121.539 15.8296 121.011 14.932C120.484 14.0343 120.22 13.0003 120.22 11.8302V11.5657C120.22 10.3795 120.484 9.33751 121.011 8.43983C121.555 7.54216 122.283 6.84486 123.195 6.34793C124.122 5.851 125.162 5.60254 126.314 5.60254C127.177 5.60254 127.985 5.77887 128.737 6.13153C129.489 6.46815 130.096 6.94104 130.56 7.55017L128.881 9.25736C128.561 8.87264 128.177 8.59212 127.729 8.41579C127.297 8.23946 126.834 8.1513 126.338 8.1513C125.698 8.1513 125.122 8.29557 124.61 8.5841C124.114 8.85661 123.715 9.24935 123.411 9.7623C123.123 10.2592 122.979 10.8604 122.979 11.5657V11.8302C122.979 12.5195 123.123 13.1206 123.411 13.6335C123.715 14.1465 124.122 14.5472 124.634 14.8358C125.162 15.1083 125.738 15.2445 126.362 15.2445C126.842 15.2445 127.297 15.1644 127.729 15.0041C128.177 14.8278 128.585 14.5553 128.953 14.1866L130.608 15.8457C130.144 16.4548 129.529 16.9357 128.761 17.2884C127.993 17.625 127.177 17.7933 126.314 17.7933Z" fill="white"></path><path d="M114.998 17.5528V13.6095L114.662 12.5996V10.123C114.662 9.3856 114.454 8.85661 114.038 8.53601C113.638 8.19939 113.078 8.03107 112.358 8.03107C111.799 8.03107 111.199 8.14328 110.559 8.3677C109.919 8.59212 109.359 8.91272 108.879 9.3295L107.632 7.45399C108.176 6.89295 108.879 6.44411 109.743 6.10748C110.623 5.77085 111.551 5.60254 112.526 5.60254C113.486 5.60254 114.326 5.77085 115.045 6.10748C115.781 6.44411 116.357 6.94104 116.773 7.59826C117.189 8.23946 117.397 9.04096 117.397 10.0028V13.7778C117.397 14.419 117.397 15.0522 117.397 15.6773C117.413 16.2865 117.437 16.9116 117.469 17.5528H114.998ZM111.663 17.7933C110.335 17.7933 109.271 17.4727 108.472 16.8315C107.672 16.1903 107.272 15.3567 107.272 14.3308C107.272 13.6415 107.456 13.0244 107.824 12.4794C108.192 11.9344 108.728 11.5016 109.431 11.181C110.151 10.8604 111.023 10.7001 112.046 10.7001C113.438 10.7001 114.486 11.0126 115.189 11.6378C115.909 12.2469 116.269 13.0565 116.269 14.0663H115.549C115.549 15.2526 115.229 16.1743 114.59 16.8315C113.95 17.4727 112.974 17.7933 111.663 17.7933ZM112.358 15.7495C113.062 15.7495 113.622 15.6132 114.038 15.3407C114.454 15.0522 114.662 14.6675 114.662 14.1866C114.662 13.7217 114.454 13.353 114.038 13.0805C113.622 12.792 113.062 12.6477 112.358 12.6477C111.671 12.6477 111.111 12.792 110.679 13.0805C110.263 13.353 110.055 13.7217 110.055 14.1866C110.055 14.6675 110.263 15.0522 110.679 15.3407C111.111 15.6132 111.671 15.7495 112.358 15.7495Z" fill="white"></path><path d="M99.2206 17.5541V5.84423H101.884V9.23456L101.548 9.21051C101.596 8.32887 101.78 7.63958 102.1 7.14265C102.42 6.62969 102.835 6.26902 103.347 6.06063C103.859 5.85224 104.419 5.74805 105.027 5.74805H105.986V8.48916H104.811C103.899 8.48916 103.195 8.69755 102.699 9.11433C102.22 9.53111 101.98 10.1402 101.98 10.9417V17.5541H99.2206Z" fill="white"></path><path d="M91.0917 17.5541V1.97299H94.0668V17.5541H91.0917ZM86.3173 3.41568V0.722656H98.9132V3.41568H86.3173Z" fill="white"></path><path d="M81.9339 17.7933C80.7662 17.7933 79.7346 17.5448 78.8389 17.0479C77.9591 16.5349 77.2714 15.8296 76.7755 14.932C76.2797 14.0182 76.0318 12.9603 76.0318 11.758V11.5176C76.0318 10.3955 76.2637 9.39362 76.7275 8.51197C77.1914 7.61429 77.8392 6.90898 78.6709 6.39602C79.5186 5.86703 80.4943 5.60254 81.598 5.60254C82.7816 5.60254 83.7813 5.89108 84.597 6.46815C85.4287 7.0292 86.0365 7.8307 86.4204 8.87264C86.8043 9.91459 86.9083 11.1409 86.7323 12.5515H78.0231V10.5798H85.2688L84.0452 11.5897C84.1571 10.7882 84.1172 10.115 83.9252 9.56994C83.7493 9.0089 83.4614 8.5841 83.0615 8.29557C82.6616 7.991 82.1818 7.83871 81.622 7.83871C80.9982 7.83871 80.4703 7.99901 80.0385 8.31961C79.6226 8.64021 79.3027 9.07302 79.0788 9.61803C78.8709 10.1631 78.7669 10.7962 78.7669 11.5176V11.9985C78.7669 12.6557 78.8948 13.2408 79.1508 13.7538C79.4067 14.2667 79.7826 14.6675 80.2784 14.956C80.7742 15.2445 81.374 15.3888 82.0778 15.3888C82.6696 15.3888 83.1655 15.3087 83.5653 15.1484C83.9812 14.972 84.3571 14.7316 84.693 14.427L86.2525 16.0621C85.7886 16.6391 85.1808 17.0719 84.4291 17.3605C83.6933 17.649 82.8616 17.7933 81.9339 17.7933Z" fill="white"></path><path d="M62.6592 17.5528V5.84299H65.3224V9.065H64.5786C64.7546 8.35968 65.0025 7.78261 65.3224 7.33377C65.6423 6.88493 66.0022 6.54029 66.402 6.29984C66.8179 6.04336 67.2418 5.86703 67.6736 5.77085C68.1055 5.65864 68.4974 5.60254 68.8492 5.60254C70.1608 5.60254 71.2085 6.03535 71.9922 6.90096C72.792 7.75055 73.1918 8.97684 73.1918 10.5798V17.5528H70.4327V11.0367C70.4327 10.0108 70.2168 9.27339 69.7849 8.82455C69.3531 8.35969 68.7853 8.12725 68.0815 8.12725C67.5857 8.12725 67.1298 8.23946 66.7139 8.46388C66.3141 8.6883 65.9942 9.02493 65.7542 9.47376C65.5303 9.90657 65.4184 10.4436 65.4184 11.0848V17.5528H62.6592Z" fill="white"></path><path d="M51.5111 17.8875C49.9276 17.8875 48.5121 17.5188 47.2645 16.7814C46.0169 16.044 45.0332 15.0261 44.3134 13.7277C43.5937 12.4293 43.2338 10.9225 43.2338 9.20728V9.01493C43.2338 7.29973 43.5937 5.80093 44.3134 4.51853C45.0332 3.22011 46.0169 2.21022 47.2645 1.48888C48.5121 0.751501 49.9276 0.382812 51.5111 0.382812C53.0946 0.382812 54.5022 0.751501 55.7338 1.48888C56.9814 2.21022 57.965 3.22011 58.6848 4.51853C59.4046 5.80093 59.7645 7.29973 59.7645 9.01493V9.20728C59.7645 10.9225 59.4046 12.4293 58.6848 13.7277C57.965 15.0261 56.9814 16.044 55.7338 16.7814C54.5022 17.5188 53.0946 17.8875 51.5111 17.8875ZM51.5111 15.0021C52.5348 15.0021 53.4385 14.7697 54.2222 14.3048C55.006 13.8399 55.6218 13.1747 56.0696 12.3091C56.5175 11.4274 56.7414 10.3935 56.7414 9.20728V9.01493C56.7414 7.82871 56.5175 6.81081 56.0696 5.96123C55.6218 5.11164 55.006 4.45441 54.2222 3.98955C53.4385 3.50865 52.5348 3.2682 51.5111 3.2682C50.5034 3.2682 49.5997 3.50865 48.8 3.98955C48.0003 4.45441 47.3765 5.11164 46.9286 5.96123C46.4807 6.81081 46.2568 7.82871 46.2568 9.01493V9.20728C46.2568 10.3935 46.4807 11.4274 46.9286 12.3091C47.3765 13.1747 48.0003 13.8399 48.8 14.3048C49.5997 14.7697 50.5034 15.0021 51.5111 15.0021Z" fill="white"></path><mask id="mask1_1260_3113" style="mask-type:alpha" maskUnits="userSpaceOnUse" x="0" y="0" width="33" height="33"><path d="M0 0.240234H32.6295V32.9413H0V0.240234Z" fill="#D9D9D9"></path></mask><g mask="url(#mask1_1260_3113)"><path d="M25.665 18.9266C27.0872 19.7314 28.5402 20.5026 30.0257 21.244L23.3454 32.0803C22.9744 31.2139 22.5293 30.2372 22.01 29.1523C21.4907 28.0673 20.928 26.988 20.3219 25.9161C19.7157 24.8424 19.0661 23.8228 18.3731 22.8518C17.6801 21.8826 16.9871 21.0647 16.2959 20.4018C15.6282 21.0647 15.0094 21.8751 14.4395 22.8331C13.8713 23.7892 13.3647 24.805 12.9196 25.8769C12.4726 26.9488 12.089 28.0281 11.7688 29.1131C11.4467 30.198 11.1988 31.1877 11.0269 32.0803L3.27178 23.6174C4.43343 22.6744 5.55345 21.6716 6.62824 20.6109C7.70484 19.5521 8.71268 18.4354 9.65357 17.2609C8.21871 17.1077 6.76395 16.9733 5.29289 16.8594C3.82184 16.7436 2.34356 16.6614 0.858032 16.6091L5.2748 4.00996C6.11618 5.31152 7.14211 6.57573 8.35442 7.80073C9.56672 9.02759 10.7917 10.0864 12.0275 10.9809C11.8791 9.4739 11.6385 7.97439 11.3038 6.48049C10.9708 4.98659 10.5818 3.53751 10.1349 2.13324L21.8237 1.10059C21.1307 2.63183 20.5878 4.29753 20.1916 6.09768C19.7953 7.89783 19.4986 9.62702 19.3013 11.2871C20.7744 10.3057 22.1593 9.19019 23.4395 7.95385C24.7368 6.70458 25.9184 5.38808 26.9823 4.00996L31.77 14.809C30.0619 14.8613 28.3375 15.0387 26.5933 15.3449C24.849 15.653 23.1355 15.9966 21.4527 16.3794C22.8387 17.2739 24.2428 18.1217 25.665 18.9266Z" fill="#3655FF"></path></g></g></svg>